<?xml version="1.0" standalone="no"?>
<!DOCTYPE svg PUBLIC "-//W3C//DTD SVG 20010904//EN"
 "http://www.w3.org/TR/2001/REC-SVG-20010904/DTD/svg10.dtd">
<svg version="1.0" xmlns="http://www.w3.org/2000/svg"
 width="90.000000pt" height="90.000000pt" viewBox="0 0 90.000000 90.000000"
 preserveAspectRatio="xMidYMid meet">
<metadata>
Created by potrace 1.11, written by Peter Selinger 2001-2013
</metadata>
<g transform="translate(0.000000,90.000000) scale(0.100000,-0.100000)"
fill="#000000" stroke="none">
<path d="M184 859 c-10 -17 -12 -240 -3 -298 14 -89 19 -107 39 -165 33 -98
114 -204 185 -244 35 -19 11 -21 -55 -4 -65 17 -65 18 -68 55 -4 44 -28 58
-99 60 -64 1 -74 -13 -71 -97 3 -66 4 -70 26 -69 37 2 38 2 39 24 1 12 7 27
14 33 9 8 10 4 5 -16 -9 -39 19 -63 101 -88 107 -32 246 -32 323 1 88 38 92
42 88 76 -3 25 -1 30 9 21 7 -6 13 -21 13 -35 0 -21 4 -24 33 -21 l32 3 1 62
c1 35 -4 70 -10 78 -16 22 -88 31 -126 15 -22 -9 -30 -19 -30 -39 0 -42 -15
-53 -90 -67 -8 -1 -27 -5 -42 -8 -38 -8 -35 -2 15 27 98 58 180 187 213 337
18 82 27 337 12 356 -13 17 -544 19 -554 3z"/>
</g>
</svg>
